Coordinates
version=1
nRows=32
nColumns=22
inDegrees=yes

Units are S.I. units (second, meters, Newtons, ...)
If the header above contains a line with 'inDegrees', this indicates whether rotational values are in degrees (yes) or radians (no).

endheader
time	pelvis_tilt	pelvis_list	pelvis_rotation	pelvis_tx	pelvis_ty	pelvis_tz	hip_flexion_r	hip_adduction_r	hip_rotation_r	knee_angle_r	ankle_angle_r	subtalar_angle_r	hip_flexion_l	hip_adduction_l	hip_rotation_l	knee_angle_l	ankle_angle_l	subtalar_angle_l	lumbar_extension	lumbar_bending	lumbar_rotation
      2.15000000	     -1.69763279	     -5.09612225	     13.86565283	      0.43817220	      0.99230791	      0.53814733	     23.43762220	      7.46813714	     12.07181291	    -23.58415008	      4.01513043	      6.59835741	     -3.00399799	     -1.47880863	     18.67144417	    -21.26386120	     19.00714423	     -4.81161438	    -12.65114079	      4.56558951	      1.66590943
      2.16000000	     -1.63014238	     -5.24251579	     14.40448376	      0.44342382	      0.99278768	      0.53745233	     23.11097024	      7.52044846	     11.59571020	    -23.61807441	      4.21042671	      6.22303333	     -2.69321686	     -1.58164049	     18.88273423	    -22.39576757	     18.69187866	     -4.39605498	    -12.59716145	      4.81768466	      1.85941912
      2.17000000	     -1.55711925	     -5.39006622	     14.95795745	      0.44862218	      0.99336517	      0.53670329	     22.72902829	      7.56663773	     11.11530272	    -23.55782771	      4.41118444	      5.85986415	     -2.31962821	     -1.67180887	     19.07901800	    -23.63171129	     18.30181292	     -3.89080732	    -12.54740936	      5.07144832	      2.03443417
      2.18000000	     -1.47304778	     -5.53396307	     15.53757828	      0.45376142	      0.99403591	      0.53586673	     22.28658890	      7.59832552	     10.62201366	    -23.40334263	      4.60347692	      5.52675262	     -1.89188787	     -1.74932938	     19.25628788	    -24.96110066	     17.84070149	     -3.31903148	    -12.50653773	      5.32511085	      2.17889493
      2.19000000	     -1.38392965	     -5.67468771	     16.09809458	      0.45887279	      0.99476558	      0.53502463	     21.81147152	      7.63867527	     10.14915325	    -23.19683781	      4.80594210	      5.16699344	     -1.42040627	     -1.81651012	     19.37804198	    -26.36462138	     17.26498725	     -2.57592895	    -12.46929879	      5.56442194	      2.35711719
      2.20000000	     -1.28036591	     -5.80798662	     16.66108301	      0.46394142	      0.99555555	      0.53412942	     21.29901169	      7.67916693	      9.68652582	    -22.94943301	      4.99947415	      4.82414882	     -0.91703562	     -1.87585147	     19.45675822	    -27.83052486	     16.59034338	     -1.72657500	    -12.44732218	      5.79543171	      2.54477853
      2.21000000	     -1.16237452	     -5.91689319	     17.23030866	      0.46894592	      0.99639053	      0.53317518	     20.75061360	      7.70212254	      9.23492854	    -22.66807288	      5.17744502	      4.49896209	     -0.37882167	     -1.91562142	     19.46123181	    -29.36589209	     15.83707978	     -0.78818920	    -12.44999536	      6.00075507	      2.72145099
      2.22000000	     -1.03195195	     -6.00279055	     17.80003899	      0.47388637	      0.99724261	      0.53218410	     20.18250925	      7.71340869	      8.79072608	    -22.37826676	      5.34916575	      4.18862890	      0.19256611	     -1.94180493	     19.38836939	    -30.96038209	     15.01557600	      0.23686483	    -12.47656360	      6.17677797	      2.89540212
      2.23000000	     -0.89179607	     -6.06332093	     18.37265646	      0.47875022	      0.99808680	      0.53115374	     19.60754925	      7.70989189	      8.34595554	    -22.09971051	      5.52439217	      3.89494914	      0.80271845	     -1.95636125	     19.22675740	    -32.61424591	     14.15598907	      1.33877466	    -12.52707910	      6.32370085	      3.05998703
      2.24000000	     -0.74755479	     -6.10120516	     18.95393466	      0.48352690	      0.99889483	      0.53007361	     19.03295916	      7.68891105	      7.89607361	    -21.83197095	      5.70207728	      3.63045560	      1.46202607	     -1.96584559	     18.97086592	    -34.32622456	     13.28860533	      2.47288253	    -12.59469740	      6.44452030	      3.21075028
      2.25000000	     -0.60300727	     -6.12376212	     19.53985266	      0.48819382	      0.99964430	      0.52899071	     18.47670336	      7.66317559	      7.45180522	    -21.59549610	      5.89511689	      3.39113409	      2.18165660	     -1.98392459	     18.61427287	    -36.09421209	     12.44058194	      3.63241569	    -12.67758772	      6.54058460	      3.34803802
      2.26000000	     -0.45918765	     -6.14054705	     20.14536058	      0.49273063	      1.00030893	      0.52789392	     17.94539235	      7.63499107	      6.98771738	    -21.39051289	      6.10352877	      3.17945456	      2.97442268	     -2.02552731	     18.16156135	    -37.92105810	     11.65261278	      4.76597385	    -12.77095234	      6.62530782	      3.45778129
      2.27000000	     -0.32046926	     -6.16090078	     20.77029357	      0.49713681	      1.00087254	      0.52678909	     17.44245229	      7.61141384	      6.50331838	    -21.20747650	      6.32793498	      2.98936935	      3.84932169	     -2.10494488	     17.61056951	    -39.79994588	     10.94367489	      5.85472631	    -12.86461679	      6.70754412	      3.54086291
      2.28000000	     -0.18220681	     -6.19885718	     21.42130398	      0.50139567	      1.00132267	      0.52568736	     16.97973372	      7.60474823	      5.96213929	    -21.06269308	      6.55722532	      2.81869670	      4.80777141	     -2.24355081	     16.97206301	    -41.71738702	     10.33375931	      6.83452511	    -12.95839745	      6.80442208	      3.60435381
      2.29000000	     -0.03847161	     -6.26129924	     22.09297917	      0.50552624	      1.00167091	      0.52462905	     16.54213958	      7.63185036	      5.40555111	    -20.93482440	      6.78675628	      2.66446141	      5.83905379	     -2.45493732	     16.26051453	    -43.65292036	      9.80611237	      7.65157144	    -13.05498277	      6.91888619	      3.64447120
      2.30000000	      0.09044029	     -6.33564475	     22.76654655	      0.50956978	      1.00192235	      0.52361559	     16.13662397	      7.67539748	      4.84694151	    -20.81358937	      7.03898176	      2.50375775	      6.93489815	     -2.72893248	     15.45575613	    -45.54927205	      9.36145947	      8.35306720	    -13.12903560	      7.03008216	      3.67615975
      2.31000000	      0.23275525	     -6.42867685	     23.45904903	      0.51352907	      1.00211657	      0.52264555	     15.73840388	      7.75208267	      4.27660716	    -20.69823078	      7.28295787	      2.35022680	      8.06199975	     -3.08011819	     14.60656007	    -47.38443252	      9.02044844	      8.79117445	    -13.21091911	      7.15383715	      3.70745528
      2.32000000	      0.41432511	     -6.53067788	     24.16352233	      0.51743916	      1.00232210	      0.52169953	     15.31224568	      7.86364266	      3.69704985	    -20.57909435	      7.49578143	      2.22376394	      9.16715389	     -3.51063146	     13.72151914	    -49.11226847	      8.81631034	      8.91471971	    -13.32871929	      7.29624790	      3.73560835
      2.33000000	      0.58980079	     -6.62835520	     24.86186526	      0.52137697	      1.00251242	      0.52074330	     14.87733543	      7.98195227	      3.13274615	    -20.43152494	      7.73694185	      2.08981380	     10.26263151	     -3.98315001	     12.80323185	    -50.68639653	      8.72822588	      8.82528014	    -13.42240116	      7.42046783	      3.78518857
      2.34000000	      0.72848045	     -6.71213048	     25.55078230	      0.52524204	      1.00264537	      0.51977218	     14.50962977	      8.07939372	      2.55820698	    -20.34218126	      7.94768604	      1.89803859	     11.37597610	     -4.45572195	     11.87651139	    -52.10290399	      8.76623721	      8.38416142	    -13.48231282	      7.50890079	      3.87019159
      2.35000000	      0.93161375	     -6.77569015	     26.24501929	      0.52912879	      1.00290374	      0.51872647	     14.04971100	      8.20158402	      2.04315673	    -20.21590560	      8.14525251	      1.75517370	     12.38093693	     -4.96514265	     10.95479953	    -53.32661327	      8.93901542	      7.71469296	    -13.60878778	      7.61108895	      3.94285381
      2.36000000	      1.12663578	     -6.78374094	     26.91760636	      0.53305194	      1.00323014	      0.51757385	     13.55432819	      8.27719613	      1.56069947	    -20.06683245	      8.40032598	      1.60112049	     13.30751358	     -5.42284622	     10.04221837	    -54.33165211	      9.16830323	      6.76423734	    -13.73655214	      7.64787359	      4.08013139
      2.37000000	      1.34339889	     -6.77134589	     27.58877872	      0.53693845	      1.00362343	      0.51631250	     13.02716863	      8.35005192	      1.08949385	    -19.91285777	      8.60012812	      1.48049496	     14.16285187	     -5.87037469	      9.15393727	    -55.14468482	      9.48735443	      5.82684940	    -13.89600158	      7.68681902	      4.22538291
      2.38000000	      1.55820266	     -6.72392203	     28.24998196	      0.54079931	      1.00405777	      0.51492741	     12.47541399	      8.39608721	      0.64737138	    -19.74637841	      8.81783408	      1.36802719	     14.95151028	     -6.26913022	      8.29151687	    -55.76036282	      9.83553799	      4.89024298	    -14.06466245	      7.69858475	      4.37953454
      2.39000000	      1.77153930	     -6.65546872	     28.91142088	      0.54460441	      1.00451781	      0.51341145	     11.90784731	      8.42363206	      0.20570091	    -19.56689203	      9.01082720	      1.27192648	     15.68717303	     -6.62477174	      7.46448229	    -56.19108680	     10.17998233	      4.07951062	    -14.24397468	      7.70218466	      4.53682615
      2.40000000	      1.97692824	     -6.56027701	     29.57117957	      0.54833301	      1.00499000	      0.51177018	     11.33612821	      8.42476687	     -0.24106642	    -19.39080241	      9.21651930	      1.18536931	     16.37123851	     -6.92420646	      6.66262928	    -56.43961966	     10.48294431	      3.42857608	    -14.43585584	      7.69019887	      4.69385865
      2.41000000	      2.16975220	     -6.45263625	     30.23792332	      0.55200381	      1.00544657	      0.50999409	     10.75903876	      8.40791349	     -0.70013035	    -19.19563532	      9.43147729	      1.11053207	     17.01840086	     -7.17518225	      5.89518564	    -56.51917429	     10.73141011	      2.97183584	    -14.62097534	      7.67275856	      4.85449001
      2.42000000	      2.35391947	     -6.33539711	     30.91188284	      0.55560695	      1.00588145	      0.50809110	     10.17866646	      8.37775439	     -1.17971775	    -18.98884785	      9.63630267	      1.04208578	     17.63077215	     -7.38614548	      5.14670068	    -56.44070635	     10.90633465	      2.65402390	    -14.80545743	      7.65618454	      5.01623004
      2.43000000	      2.52674042	     -6.22108496	     31.59702032	      0.55914508	      1.00627193	      0.50607351	      9.60032116	      8.34542069	     -1.67762273	    -18.76300789	      9.84062532	      0.98390069	     18.22334761	     -7.57281170	      4.41187666	    -56.21511956	     11.02466587	      2.46221977	    -14.98072591	      7.64987864	      5.17296556
      2.44000000	      2.68179347	     -6.12427912	     32.29914500	      0.56262072	      1.00658032	      0.50394251	      9.03666499	      8.32188312	     -2.19052292	    -18.51568602	     10.07150016	      0.94114735	     18.81744900	     -7.74468844	      3.69197027	    -55.85847427	     11.10660344	      2.36666602	    -15.12809429	      7.66364321	      5.32014091
      2.45000000	      2.84998847	     -6.01762080	     33.01563511	      0.56604392	      1.00688753	      0.50169647	      8.44615434	      8.29823731	     -2.73887811	    -18.25032173	     10.27569419	      0.89680752	     19.36125404	     -7.90163549	      2.96699526	    -55.36568792	     11.14513025	      2.28178100	    -15.29621750	      7.68840603	      5.46457129
      2.46000000	      3.00981598	     -5.91697709	     33.73517097	      0.56941926	      1.00714210	      0.49937239	      7.85975808	      8.28271463	     -3.29390377	    -17.97102415	     10.48452936	      0.86065224	     19.88765936	     -8.05033687	      2.22681524	    -54.75335486	     11.16375550	      2.21859951	    -15.45798740	      7.72111557	      5.61923534
